#!OML:ASF I:\Actors\actors\Patient Classification 2\Patient 1\Session 1\actor1.ASF
:FULLY-SPECIFIED
:DEGREES
480
root -0.402408 18.8784 5.475 10.2593 0.168143 -1.76187
lowerback 22.5292 0.60252 0.181195
upperback 7.08005 0.802407 -0.159974
thorax -4.81892 0.390598 -0.483699
lowerneck -19.2192 -2.37638 -2.5657
upperneck 20.5108 -3.37748 3.54379
head 9.7901 -1.34486 1.19394
rclavicle -3.77691e-015 3.77691e-015
rhumerus -37.6042 48.3233 -116.063
rradius 134.285
rwrist 6.23494
rhand -36.745 -21.0894
rfingers 7.12502
rthumb -9.82861 -50.84
lclavicle -3.77691e-015 3.77691e-015
lhumerus -14.7668 -52.9242 104.669
lradius 130.343
lwrist 19.9873
lhand -20.488 -40.1388
lfingers 7.12502
lthumb 5.86869 -10.2401
rfemur -3.67187 -1.09697 15.0393
rtibia 7.15625e-015
rfoot -13.6712 -13.2987
rtoes -11.2974
lfemur -20.6522 0.081885 -13.269
ltibia 27.437
lfoot -16.1548 6.54221
ltoes -55.9765
481
root -0.479985 18.8806 5.45313 9.99481 0.571085 -2.51335
lowerback 22.9582 0.342921 1.2578
upperback 7.0544 0.714542 -0.0368284
thorax -5.05164 0.347654 -0.947808
lowerneck -19.1073 -2.3614 -2.5022
upperneck 20.4646 -3.40429 3.65801
head 9.75534 -1.34059 1.22025
rclavicle 1.09332e-015 -5.1684e-015
rhumerus -37.3564 47.9752 -115.537
rradius 134.53
rwrist 6.01898
rhand -36.2332 -21.0902
rfingers 7.12502
rthumb -9.33479 -50.8636
lclavicle 1.09332e-015 -5.1684e-015
lhumerus -15.9374 -53.7435 105.354
lradius 130.216
lwrist 19.4699
lhand -20.5077 -40.7519
lfingers 7.12502
lthumb 5.84964 -10.8527
rfemur -3.41671 -1.31428 16.2052
rtibia -1.11319e-014
rfoot -13.61 -13.3328
rtoes -11.2312
lfemur -20.3312 -0.467442 -12.0613
ltibia 27.1819
lfoot -16.0203 6.88772
ltoes -56.1383
482
root -0.571928 18.8848 5.4372 9.93544 0.762254 -2.47741
lowerback 23.0753 0.266408 1.19266
upperback 7.01291 0.603427 -0.0541596
thorax -5.15925 0.293138 -0.901308
lowerneck -18.8429 -2.27351 -2.12668
upperneck 20.2288 -3.33967 3.44859
head 9.61062 -1.31097 1.09503
rclavicle -2.88238e-015 -5.56597e-015
rhumerus -36.5564 47.5094 -114.497
rradius 134.812
rwrist 5.4876
rhand -35.5889 -20.9952
rfingers 7.12502
rthumb -8.71305 -50.7953
lclavicle -2.88238e-015 -5.56597e-015
lhumerus -17.7244 -54.6687 106.624
lradius 130.12
lwrist 19.1597
lhand -20.4243 -41.2199
lfingers 7.12502
lthumb 5.93019 -11.3229
rfemur -3.39394 -1.4848 16.5169
rtibia 5.56597e-015
rfoot -13.5266 -13.3999
rtoes -11.4786
lfemur -20.1818 -1.01108 -11.7095
ltibia 26.8797
lfoot -15.956 7.32718
ltoes -56.3533
483
root -0.667391 18.8851 5.42369 9.80477 0.936543 -2.54021
lowerback 23.1195 0.177513 1.04573
upperback 7.0886 0.467681 0.0940969
thorax -5.10521 0.227204 -0.621029
lowerneck -18.67 -2.15012 -1.86962
upperneck 19.8834 -3.14506 3.06888
head 9.44023 -1.24994 0.947791
rclavicle 5.96354e-015 -2.98177e-015
rhumerus -35.012 47.0686 -112.682
rradius 135.108
rwrist 4.86626
rhand -34.9722 -21.3769
rfingers 7.12502
rthumb -8.11793 -51.201
lclavicle 5.96354e-015 -2.98177e-015
lhumerus -19.6373 -55.4629 108.265
lradius 130.063
lwrist 19.2655
lhand -20.3263 -41.4639
lfingers 7.12502
lthumb 6.02481 -11.5696
rfemur -3.2873 -1.61573 16.9422
rtibia 5.56597e-015
rfoot -13.5468 -13.3813
rtoes -11.3307
lfemur -19.9917 -1.35636 -11.2475
ltibia 26.674
lfoot -15.924 7.52873
ltoes -56.6398
484
root -0.765444 18.8817 5.40966 9.69219 1.09295 -2.64033
lowerback 23.0652 0.133317 0.853811
upperback 7.21346 0.383915 0.332464
thorax -4.94674 0.185993 -0.231183
lowerneck -18.8232 -2.11486 -2.04839
upperneck 19.8579 -3.03011 3.02052
head 9.45788 -1.21466 0.975134
rclavicle -5.96354e-016 1.19271e-015
rhumerus -32.7006 46.2809 -110.182
rradius 135.351
rwrist 3.81331
rhand -34.2 -21.9026
rfingers 7.12502
rthumb -7.37266 -51.7541
lclavicle -5.96354e-016 1.19271e-015
lhumerus -21.6092 -56.3833 110.209
lradius 129.899
lwrist 19.3984
lhand -19.9052 -41.3793
lfingers 7.12502
lthumb 6.43129 -11.497
rfemur -3.20107 -1.72482 17.4073
rtibia 1.59028e-014
rfoot -13.5943 -13.2668
rtoes -11.0575
lfemur -19.8022 -1.61261 -10.7327
ltibia 26.4311
lfoot -15.82 7.60764
ltoes -56.8519
485
root -0.861068 18.8738 5.3922 9.6242 1.25417 -2.69309
lowerback 23.0142 0.0234247 0.935198
upperback 7.25962 0.259205 0.314952
thorax -4.87138 0.12654 -0.263221
lowerneck -19.0847 -2.11114 -2.14616
upperneck 20.1604 -3.05796 3.25616
head 9.6186 -1.20288 1.06838
rclavicle -1.78906e-015 -2.5842e-015
rhumerus -30.1416 45.1015 -107.981
rradius 135.377
rwrist 2.90355
rhand -33.5963 -22.5392
rfingers 7.12502
rthumb -6.78983 -52.4103
lclavicle -1.78906e-015 -2.5842e-015
lhumerus -23.9528 -57.453 112.218
lradius 129.574
lwrist 19.1719
lhand -19.2213 -41.4854
lfingers 7.12502
lthumb 7.09152 -11.6242
rfemur -3.17951 -1.85274 17.8045
rtibia -5.56597e-015
rfoot -13.5914 -13.1221
rtoes -11.0857
lfemur -19.7305 -1.87598 -10.282
ltibia 26.2681
lfoot -15.7319 7.66737
ltoes -56.9577
486
root -0.95265 18.8608 5.36992 9.45963 1.47793 -2.74532
lowerback 23.082 -0.140558 1.16988
upperback 7.31216 0.0987659 0.272937
thorax -4.84909 0.0503762 -0.400153
lowerneck -19.1831 -2.09765 -2.11773
upperneck 20.293 -3.06308 3.30743
head 9.68405 -1.19498 1.08063
rclavicle 5.76476e-015 3.18055e-015
rhumerus -27.8279 43.7105 -106.233
rradius 135.449
rwrist 2.07491
rhand -33.1586 -23.1076
rfingers 7.12502
rthumb -6.36734 -52.9919
lclavicle 5.76476e-015 3.18055e-015
lhumerus -26.0689 -58.4054 114.106
lradius 129.239
lwrist 18.7836
lhand -18.8675 -41.8571
lfingers 7.12502
lthumb 7.43304 -12.0077
rfemur -3.06714 -2.04121 18.1981
rtibia 7.95139e-016
rfoot -13.608 -12.9946
rtoes -11.1378
lfemur -19.621 -2.2965 -9.84075
ltibia 26.1676
lfoot -15.7412 7.79429
ltoes -56.9782
487
root -1.0447 18.845 5.34362 9.24114 1.72162 -2.78649
lowerback 23.2645 -0.307105 1.5151
upperback 7.35287 -0.0394217 0.208093
thorax -4.89786 -0.0147133 -0.630605
lowerneck -19.1412 -2.09982 -2.12029
upperneck 20.2295 -3.07088 3.33626
head 9.6548 -1.19645 1.09007
rclavicle -3.97569e-016 -2.18663e-015
rhumerus -26.3447 42.3234 -105.286
rradius 135.816
rwrist 1.12715
rhand -32.648 -23.3429
rfingers 7.12502
rthumb -5.87438 -53.2415
lclavicle -3.97569e-016 -2.18663e-015
lhumerus -27.3747 -58.9738 115.365
lradius 129.054
lwrist 18.6773
lhand -18.4391 -42.0196
lfingers 7.12502
lthumb 7.8465 -12.1852
rfemur -2.90338 -2.2501 18.5971
rtibia 4.77083e-015
rfoot -13.6849 -12.8881
rtoes -11.0347
lfemur -19.4713 -2.81527 -9.4053
ltibia 26.0739
lfoot -15.7965 7.9972
ltoes -56.9882
488
root -1.13934 18.8299 5.31543 9.1274 1.92196 -2.74761
lowerback 23.2217 -0.358885 1.66659
upperback 7.46162 -0.0722865 0.221787
thorax -4.75828 -0.0281198 -0.693687
lowerneck -19.0792 -2.1677 -2.29582
upperneck 19.9467 -3.12147 3.40837
head 9.54964 -1.2281 1.13668
rclavicle 1.78906e-015 4.96962e-015
rhumerus -25.3404 41.8565 -104.458
rradius 136.139
rwrist 0.410758
rhand -32.8459 -23.7945
rfingers 7.12502
rthumb -6.0654 -53.6877
lclavicle 1.78906e-015 4.96962e-015
lhumerus -26.9066 -58.9395 115.247
lradius 128.851
lwrist 18.4747
lhand -17.8093 -41.8613
lfingers 7.12502
lthumb 8.4544 -12.0505
rfemur -2.86703 -2.43265 18.9223
rtibia 0
rfoot -13.8006 -12.8245
rtoes -10.9574
lfemur -19.4987 -3.25469 -9.06722
ltibia 26.1016
lfoot -15.8438 8.2192
ltoes -57.1061
489
root -1.24743 18.8181 5.29134 9.19615 1.9281 -2.40415
lowerback 23.1518 -0.254443 1.41872
upperback 7.41905 -0.00265754 0.076972
thorax -4.76855 0.00599932 -0.726819
lowerneck -18.852 -2.22737 -2.2224
upperneck 19.5587 -3.20378 3.35516
head 9.37285 -1.27241 1.09515
rclavicle 7.7526e-015 -5.36719e-015
rhumerus -25.2889 42.1377 -104.58
rradius 136.231
rwrist 0.143673
rhand -33.6403 -23.644
rfingers 7.12502
rthumb -6.83231 -53.5137
lclavicle 7.7526e-015 -5.36719e-015
lhumerus -25.5512 -58.6396 114.184
lradius 128.723
lwrist 18.192
lhand -17.5065 -41.351
lfingers 7.12502
lthumb 8.74658 -11.5523
rfemur -3.05219 -2.47416 18.9348
rtibia 2.38542e-015
rfoot -13.8723 -12.8197
rtoes -11.1401
lfemur -19.6884 -3.60012 -9.04907
ltibia 26.1476
lfoot -15.8915 8.52505
ltoes -57.2511
490
root -1.32559 18.8041 5.25723 9.06685 2.15045 -2.95327
lowerback 23.3358 -0.394286 2.47591
upperback 7.36189 0.0594488 0.11736
thorax -4.91665 0.0378325 -1.30407
lowerneck -18.3824 -2.20297 -1.81506
upperneck 18.9976 -3.1636 2.86698
head 9.07593 -1.28799 0.867914
rclavicle 1.59028e-015 6.75868e-015
rhumerus -26.4235 42.8996 -105.835
rradius 136.312
rwrist 0.916917
rhand -34.4023 -23.8263
rfingers 7.12502
rthumb -7.56791 -53.6709
lclavicle 1.59028e-015 6.75868e-015
lhumerus -23.5735 -58.2025 112.664
lradius 128.68
lwrist 18.1374
lhand -17.4292 -40.8208
lfingers 7.12502
lthumb 8.82114 -11.0251
rfemur -3.05201 -2.58486 19.852
rtibia 5.56597e-015
rfoot -13.8484 -12.8519
rtoes -11.7783
lfemur -19.7532 -3.7453 -8.1359
ltibia 26.2454
lfoot -15.8508 8.53242
ltoes -57.3558
491
root -1.41529 18.7967 5.22965 9.17835 2.23382 -3.03509
lowerback 23.1731 -0.328522 2.76631
upperback 7.32697 0.206495 0.152857
thorax -4.86473 0.110355 -1.47034
lowerneck -18.2207 -2.26844 -1.84473
upperneck 18.8039 -3.22911 2.81283
head 8.98111 -1.32977 0.846942
rclavicle -1.2921e-015 -4.96962e-015
rhumerus -27.8328 43.7941 -107.266
rradius 136.236
rwrist 1.55828
rhand -34.7732 -23.6441
rfingers 7.12502
rthumb -7.92585 -53.4755
lclavicle -1.2921e-015 -4.96962e-015
lhumerus -21.0559 -57.6346 110.766
lradius 128.634
lwrist 18.2105
lhand -17.6937 -40.7388
lfingers 7.12502
lthumb 8.56589 -10.9326
rfemur -3.30015 -2.63582 20.268
rtibia 4.77083e-015
rfoot -13.816 -12.8727
rtoes -11.7683
lfemur -20.0382 -3.89864 -7.69136
ltibia 26.3292
lfoot -15.8113 8.63859
ltoes -57.416
492
root -1.50262 18.7925 5.20336 9.2803 2.32905 -3.11193
lowerback 23.0731 -0.260884 3.06625
upperback 7.29704 0.359751 0.194396
thorax -4.83691 0.185699 -1.63692
lowerneck -18.1648 -2.33826 -1.81657
upperneck 18.6724 -3.29347 2.6518
head 8.92385 -1.37695 0.779505
rclavicle -1.39149e-015 -5.76476e-015
rhumerus -29.2263 44.7475 -108.57
rradius 135.945
rwrist 1.99169
rhand -35.3246 -23.1231
rfingers 7.12502
rthumb -8.45801 -52.9337
lclavicle -1.39149e-015 -5.76476e-015
lhumerus -18.5343 -56.972 108.827
lradius 128.701
lwrist 18.3744
lhand -18.2156 -41.3005
lfingers 7.12502
lthumb 8.06229 -11.4743
rfemur -3.52385 -2.69884 20.6651
rtibia -7.95139e-016
rfoot -13.8265 -12.878
rtoes -11.238
lfemur -20.323 -4.01565 -7.25304
ltibia 26.4452
lfoot -15.7786 8.65501
ltoes -57.5024
493
root -1.58769 18.7877 5.18171 9.36743 2.36892 -3.19661
lowerback 22.9 -0.190066 3.17122
upperback 7.32847 0.472784 0.283661
thorax -4.70935 0.242717 -1.62872
lowerneck -18.201 -2.3224 -1.78066
upperneck 18.5934 -3.25489 2.54415
head 8.89956 -1.3684 0.741689
rclavicle -8.59744e-015 -1.19271e-015
rhumerus -30.4194 46.0275 -109.404
rradius 135.49
rwrist 2.1522
rhand -35.9893 -22.4284
rfingers 7.12502
rthumb -9.09944 -52.2121
lclavicle -8.59744e-015 -1.19271e-015
lhumerus -16.054 -56.1424 106.86
lradius 128.929
lwrist 18.7273
lhand -18.9282 -42.5397
lfingers 7.12502
lthumb 7.37441 -12.6882
rfemur -3.70784 -2.70449 21.0592
rtibia -7.15625e-015
rfoot -13.8387 -12.8655
rtoes -10.6261
lfemur -20.5009 -3.91379 -6.83173
ltibia 26.453
lfoot -15.6555 8.48924
ltoes -57.5623
